<svg version="1.1" viewBox="0.0 0.0 480.0 480.0" fill="none" stroke="none" stroke-linecap="square" stroke-miterlimit="10" xmlns:xlink="http://www.w3.org/1999/xlink" xmlns="http://www.w3.org/2000/svg"><clipPath id="p.0"><path d="m0 0l480.0 0l0 480.0l-480.0 0l0 -480.0z" clip-rule="nonzero"/></clipPath><g clip-path="url(#p.0)"><path fill="#000000" fill-opacity="0.0" d="m0 0l480.0 0l0 480.0l-480.0 0z" fill-rule="evenodd"/><path fill="#fff9ed" d="m7.0341206 84.54224l0 0c0 -42.806553 34.70156 -77.50812 77.50812 -77.50812l310.02313 0l0 0c20.556427 0 40.270935 8.16601 54.80652 22.701601c14.5355835 14.535591 22.7016 34.25008 22.7016 54.806515l0 310.02313c0 42.80655 -34.70157 77.50812 -77.50812 77.50812l-310.02313 0c-42.806553 0 -77.50812 -34.70157 -77.50812 -77.50812z" fill-rule="evenodd"/><path stroke="#ff4c4c" stroke-width="16.0" stroke-linejoin="round" stroke-linecap="butt" d="m7.0341206 84.54224l0 0c0 -42.806553 34.70156 -77.50812 77.50812 -77.50812l310.02313 0l0 0c20.556427 0 40.270935 8.16601 54.80652 22.701601c14.5355835 14.535591 22.7016 34.25008 22.7016 54.806515l0 310.02313c0 42.80655 -34.70157 77.50812 -77.50812 77.50812l-310.02313 0c-42.806553 0 -77.50812 -34.70157 -77.50812 -77.50812z" fill-rule="evenodd"/><path fill="#000000" fill-opacity="0.0" d="m342.9736 43.10914l90.84573 90.84574l-238.22165 238.22163l-90.84573 -90.84573z" fill-rule="evenodd"/><path stroke="#ff4c4c" stroke-width="16.0" stroke-linejoin="round" stroke-linecap="butt" d="m342.9736 43.10914l90.84573 90.84574l-238.22165 238.22163l-90.84573 -90.84573z" fill-rule="evenodd"/><path fill="#000000" fill-opacity="0.0" d="m104.77835 281.30438l-35.060776 125.906494l125.90651 -35.06076z" fill-rule="evenodd"/><path stroke="#ff4c4c" stroke-width="16.0" stroke-linejoin="round" stroke-linecap="butt" d="m104.77835 281.30438l-35.060776 125.906494l125.90651 -35.06076z" fill-rule="evenodd"/><path fill="#000000" fill-opacity="0.0" d="m300.2014 83.19441l92.194244 92.19423" fill-rule="evenodd"/><path stroke="#ff4c4c" stroke-width="16.0" stroke-linejoin="round" stroke-linecap="butt" d="m300.2014 83.19441l92.194244 92.19423" fill-rule="evenodd"/><path fill="#000000" fill-opacity="0.0" d="m366.53354 198.12622l-89.28433 -89.284325" fill-rule="evenodd"/><path stroke="#ff4c4c" stroke-width="16.0" stroke-linejoin="round" stroke-linecap="butt" d="m366.53354 198.12622l-89.28433 -89.284325" fill-rule="evenodd"/><path fill="#000000" fill-opacity="0.0" d="m135.03561 308.4093l171.29388 -171.29388" fill-rule="evenodd"/><path stroke="#ff4c4c" stroke-width="16.0" stroke-linejoin="round" stroke-linecap="butt" d="m135.03561 308.4093l171.29388 -171.29388" fill-rule="evenodd"/><path fill="#000000" fill-opacity="0.0" d="m86.063995 350.71213l-15.702827 56.264008l56.264023 -15.70282z" fill-rule="evenodd"/><path stroke="#ff4c4c" stroke-width="16.0" stroke-linejoin="round" stroke-linecap="butt" d="m86.063995 350.71213l-15.702827 56.264008l56.264023 -15.70282z" fill-rule="evenodd"/></g></svg>