<svg version="1.1" viewBox="0.0 0.0 480.0 480.0" fill="none" stroke="none" stroke-linecap="square" stroke-miterlimit="10" xmlns:xlink="http://www.w3.org/1999/xlink" xmlns="http://www.w3.org/2000/svg"><clipPath id="p.0"><path d="m0 0l480.0 0l0 480.0l-480.0 0l0 -480.0z" clip-rule="nonzero"/></clipPath><g clip-path="url(#p.0)"><path fill="#000000" fill-opacity="0.0" d="m0 0l480.0 0l0 480.0l-480.0 0z" fill-rule="evenodd"/><path fill="#666666" d="m230.1102 114.64311l0 0c0 -1.820694 1.4759674 -3.2966537 3.2966614 -3.2966537l13.186218 0l0 0c0.8743286 0 1.7128448 0.34732056 2.3310852 0.96556854c0.61824036 0.61824036 0.9655609 1.4567566 0.9655609 2.3310852l0 250.69804c0 1.8206787 -1.4759521 3.2966309 -3.296646 3.2966309l-13.186218 0c-1.820694 0 -3.2966614 -1.4759521 -3.2966614 -3.2966309z" fill-rule="evenodd"/><path fill="#666666" d="m114.65095 249.8819l0 0c-1.8206863 0 -3.2966537 -1.4759674 -3.2966537 -3.2966614l0 -13.186218l0 0c0 -0.8743286 0.3473282 -1.7128448 0.96556854 -2.3310852c0.61824036 -0.61824036 1.4567642 -0.9655762 2.3310852 -0.9655762l250.69803 0c1.8207092 0 3.2966614 1.4759674 3.2966614 3.2966614l0 13.186218c0 1.820694 -1.4759521 3.2966614 -3.2966614 3.2966614z" fill-rule="evenodd"/></g></svg>