<svg version="1.1" viewBox="0.0 0.0 480.0 480.0" fill="none" stroke="none" stroke-linecap="square" stroke-miterlimit="10" xmlns:xlink="http://www.w3.org/1999/xlink" xmlns="http://www.w3.org/2000/svg"><clipPath id="p.0"><path d="m0 0l480.0 0l0 480.0l-480.0 0l0 -480.0z" clip-rule="nonzero"/></clipPath><g clip-path="url(#p.0)"><path fill="#000000" fill-opacity="0.0" d="m0 0l480.0 0l0 480.0l-480.0 0z" fill-rule="evenodd"/><path fill="#ffffff" d="m342.5046 281.37747l0 0c4.5720215 4.5720215 11.984741 4.5720215 16.556763 0l33.11255 -33.112534l0 0c2.1955566 -2.195572 3.429016 -5.1733856 3.429016 -8.278381c0 -3.1049957 -1.2334595 -6.0828247 -3.429016 -8.278381l-223.44325 -223.44324c-4.5720215 -4.5720234 -11.984726 -4.5720234 -16.556763 0l-33.112526 33.11253c-4.5720215 4.5720253 -4.5720215 11.984737 0 16.556763z" fill-rule="evenodd"/><path fill="#ffffff" d="m392.17392 248.27806l0 0c4.5720215 -4.5720215 4.5720215 -11.984741 0 -16.556763l-33.11255 -33.112534l0 0c-2.1955566 -2.1955566 -5.1733704 -3.429016 -8.278381 -3.429016c-3.1049805 0 -6.082794 1.2334595 -8.278381 3.429016l-223.44324 223.44324c-4.5720215 4.5720215 -4.5720215 11.984741 0 16.556763l33.112526 33.11252c4.5720367 4.572052 11.984741 4.572052 16.556763 0z" fill-rule="evenodd"/></g></svg>