<svg version="1.1" viewBox="0.0 0.0 480.0 480.0" fill="none" stroke="none" stroke-linecap="square" stroke-miterlimit="10" xmlns:xlink="http://www.w3.org/1999/xlink" xmlns="http://www.w3.org/2000/svg"><clipPath id="p.0"><path d="m0 0l480.0 0l0 480.0l-480.0 0l0 -480.0z" clip-rule="nonzero"/></clipPath><g clip-path="url(#p.0)"><path fill="#000000" fill-opacity="0.0" d="m0 0l480.0 0l0 480.0l-480.0 0z" fill-rule="evenodd"/><path fill="#fff9ed" d="m7.0341206 84.54224l0 0c0 -42.806553 34.70156 -77.50812 77.50812 -77.50812l310.02313 0l0 0c20.556427 0 40.270935 8.16601 54.80652 22.701601c14.5355835 14.535591 22.7016 34.25008 22.7016 54.806515l0 310.02313c0 42.80655 -34.70157 77.50812 -77.50812 77.50812l-310.02313 0c-42.806553 0 -77.50812 -34.70157 -77.50812 -77.50812z" fill-rule="evenodd"/><path stroke="#ff4c4c" stroke-width="16.0" stroke-linejoin="round" stroke-linecap="butt" d="m7.0341206 84.54224l0 0c0 -42.806553 34.70156 -77.50812 77.50812 -77.50812l310.02313 0l0 0c20.556427 0 40.270935 8.16601 54.80652 22.701601c14.5355835 14.535591 22.7016 34.25008 22.7016 54.806515l0 310.02313c0 42.80655 -34.70157 77.50812 -77.50812 77.50812l-310.02313 0c-42.806553 0 -77.50812 -34.70157 -77.50812 -77.50812z" fill-rule="evenodd"/><path fill="#000000" fill-opacity="0.0" d="m113.43569 138.17061l18.711296 284.2572l204.37794 0" fill-rule="evenodd"/><path stroke="#ff4c4c" stroke-width="16.0" stroke-linejoin="round" stroke-linecap="butt" d="m113.43569 138.17061l18.711296 284.2572l204.37794 0" fill-rule="evenodd"/><path fill="#000000" fill-opacity="0.0" d="m365.6706 138.17061l-18.711273 284.2572l-204.37796 0" fill-rule="evenodd"/><path stroke="#ff4c4c" stroke-width="16.0" stroke-linejoin="round" stroke-linecap="butt" d="m365.6706 138.17061l-18.711273 284.2572l-204.37796 0" fill-rule="evenodd"/><path fill="#000000" fill-opacity="0.0" d="m112.53018 101.47769l254.04724 0c4.8657837 0 9.532288 1.9329224 12.9729 5.3735504c3.4406433 3.440628 5.3735657 8.107124 5.3735657 12.972908l0 18.346458c0 0.0013275146 -0.0010986328 0.0024108887 -0.0024414062 0.0024108887l-290.73773 -0.0024108887l0 0c-0.001335144 0 -0.002418518 -0.001083374 -0.002418518 -0.0024261475l0.002418518 -18.344032l0 0c0 -10.132469 8.213989 -18.346458 18.346458 -18.346458z" fill-rule="evenodd"/><path stroke="#ff4c4c" stroke-width="16.0" stroke-linejoin="round" stroke-linecap="butt" d="m112.53018 101.47769l254.04724 0c4.8657837 0 9.532288 1.9329224 12.9729 5.3735504c3.4406433 3.440628 5.3735657 8.107124 5.3735657 12.972908l0 18.346458c0 0.0013275146 -0.0010986328 0.0024108887 -0.0024414062 0.0024108887l-290.73773 -0.0024108887l0 0c-0.001335144 0 -0.002418518 -0.001083374 -0.002418518 -0.0024261475l0.002418518 -18.344032l0 0c0 -10.132469 8.213989 -18.346458 18.346458 -18.346458z" fill-rule="evenodd"/><path fill="#000000" fill-opacity="0.0" d="m207.16011 64.784775l64.7874 0l0 0c4.8657837 0 9.532288 1.93293 12.9729 5.373558c3.4406433 3.440628 5.3735657 8.107117 5.3735657 12.9729l0 18.346458c0 4.6539307E-4 -3.9672852E-4 8.468628E-4 -8.544922E-4 8.468628E-4l-101.47948 -8.468628E-4l0 0c-4.5776367E-4 0 -8.392334E-4 -3.8146973E-4 -8.392334E-4 -8.468628E-4l8.392334E-4 -18.345612l0 0c0 -10.132469 8.213989 -18.346458 18.346466 -18.346458z" fill-rule="evenodd"/><path stroke="#ff4c4c" stroke-width="16.0" stroke-linejoin="round" stroke-linecap="butt" d="m207.16011 64.784775l64.7874 0l0 0c4.8657837 0 9.532288 1.93293 12.9729 5.373558c3.4406433 3.440628 5.3735657 8.107117 5.3735657 12.9729l0 18.346458c0 4.6539307E-4 -3.9672852E-4 8.468628E-4 -8.544922E-4 8.468628E-4l-101.47948 -8.468628E-4l0 0c-4.5776367E-4 0 -8.392334E-4 -3.8146973E-4 -8.392334E-4 -8.468628E-4l8.392334E-4 -18.345612l0 0c0 -10.132469 8.213989 -18.346458 18.346466 -18.346458z" fill-rule="evenodd"/><path fill="#cfe2f3" d="m236.12764 170.0157l7.7480316 0l0 220.56691l-7.7480316 0z" fill-rule="evenodd"/><path stroke="#ff4c4c" stroke-width="8.0" stroke-linejoin="round" stroke-linecap="butt" d="m236.12764 170.0157l7.7480316 0l0 220.56691l-7.7480316 0z" fill-rule="evenodd"/><path fill="#cfe2f3" d="m171.61417 170.01677l7.779541 0l0 220.56694l-7.779541 0z" fill-rule="evenodd"/><path stroke="#ff4c4c" stroke-width="8.0" stroke-linejoin="round" stroke-linecap="butt" d="m171.61417 170.01677l7.779541 0l0 220.56694l-7.779541 0z" fill-rule="evenodd"/><path fill="#cfe2f3" d="m300.6063 170.01677l7.779541 0l0 220.56694l-7.779541 0z" fill-rule="evenodd"/><path stroke="#ff4c4c" stroke-width="8.0" stroke-linejoin="round" stroke-linecap="butt" d="m300.6063 170.01677l7.779541 0l0 220.56694l-7.779541 0z" fill-rule="evenodd"/></g></svg>